<svg width="21" height="10" viewBox="0 0 21 10" fill="none" xmlns="http://www.w3.org/2000/svg">
<path d="M4.26257 1.82227C3.57897 1.82227 3.04967 2.08008 2.67467 2.5957C2.29967 3.10742 2.11217 3.82227 2.11217 4.74023C2.11217 6.65039 2.82897 7.60547 4.26257 7.60547C4.86413 7.60547 5.59264 7.45508 6.44811 7.1543V8.67773C5.74499 8.9707 4.95983 9.11719 4.09264 9.11719C2.84655 9.11719 1.89342 8.74023 1.23327 7.98633C0.573112 7.22852 0.243034 6.14258 0.243034 4.72852C0.243034 3.83789 0.405144 3.05859 0.729362 2.39062C1.05358 1.71875 1.51842 1.20508 2.12389 0.849609C2.73327 0.490234 3.44616 0.310547 4.26257 0.310547C5.0946 0.310547 5.93053 0.511719 6.77038 0.914062L6.18444 2.39062C5.86413 2.23828 5.54186 2.10547 5.21764 1.99219C4.89342 1.87891 4.57507 1.82227 4.26257 1.82227ZM10.0926 4.46484H10.6903C11.2489 4.46484 11.6669 4.35547 11.9442 4.13672C12.2215 3.91406 12.3602 3.5918 12.3602 3.16992C12.3602 2.74414 12.243 2.42969 12.0087 2.22656C11.7782 2.02344 11.4149 1.92188 10.9188 1.92188H10.0926V4.46484ZM14.1942 3.10547C14.1942 4.02734 13.9051 4.73242 13.327 5.2207C12.7528 5.70898 11.9344 5.95312 10.8719 5.95312H10.0926V9H8.27624V0.433594H11.0126C12.0516 0.433594 12.8407 0.658203 13.3798 1.10742C13.9227 1.55273 14.1942 2.21875 14.1942 3.10547ZM17.5985 9H15.8114V0.433594H20.7215V1.92188H17.5985V4.13086H20.5048V5.61328H17.5985V9Z" fill="#1E4040"/>
</svg>
